PathFileType	4	(X/Y/Z)	C:\Users\Basilio\Documents\Thesis Gigler\squatting_fais\c3dfiles\038\SLS_back_pre2\markers_experimental.trc
DataRate	CameraRate	NumFrames	NumMarkers	Units	OrigDataRate	OrigDataStartFrame	OrigNumFrames
200.000000	200.000000	4	63	mm	200.000000	1119	1791
Frame#	Time	FHD			LBHD			RBHD			C7			T10			CLAV			LSHO			LUUPA			LMUPA			LDUPA			LLEP			LMEP			LRAD			LUL			LRFIN			RSHO			RUPA1			RMUPA			RDUPA			RLEP			RMEP			RRAD			RUL			RUFIN			LASI			RASI			USACR			LSACR			RSACR			LTHI1			LTHI2			LTHI3			LTHI4			LLFC			LMFC			LTIB1			LTIB2			LTIB3			LTIB4			LLMAL			LMMAL			LHEE			LMT1			LMT2			LMT5			RTHI			RTHI2			RTHI3			RTHI4			RLFC			RMFC			RTIB1			RTIB2			RTIB3			RTIB4			RLMAL			RMMAL			RHEE			RMT1			RMT2			RMT5			*61			*62			
		X1	Y1	Z1	X2	Y2	Z2	X3	Y3	Z3	X4	Y4	Z4	X5	Y5	Z5	X6	Y6	Z6	X7	Y7	Z7	X8	Y8	Z8	X9	Y9	Z9	X10	Y10	Z10	X11	Y11	Z11	X12	Y12	Z12	X13	Y13	Z13	X14	Y14	Z14	X15	Y15	Z15	X16	Y16	Z16	X17	Y17	Z17	X18	Y18	Z18	X19	Y19	Z19	X20	Y20	Z20	X21	Y21	Z21	X22	Y22	Z22	X23	Y23	Z23	X24	Y24	Z24	X25	Y25	Z25	X26	Y26	Z26	X27	Y27	Z27	X28	Y28	Z28	X29	Y29	Z29	X30	Y30	Z30	X31	Y31	Z31	X32	Y32	Z32	X33	Y33	Z33	X34	Y34	Z34	X35	Y35	Z35	X36	Y36	Z36	X37	Y37	Z37	X38	Y38	Z38	X39	Y39	Z39	X40	Y40	Z40	X41	Y41	Z41	X42	Y42	Z42	X43	Y43	Z43	X44	Y44	Z44	X45	Y45	Z45	X46	Y46	Z46	X47	Y47	Z47	X48	Y48	Z48	X49	Y49	Z49	X50	Y50	Z50	X51	Y51	Z51	X52	Y52	Z52	X53	Y53	Z53	X54	Y54	Z54	X55	Y55	Z55	X56	Y56	Z56	X57	Y57	Z57	X58	Y58	Z58	X59	Y59	Z59	X60	Y60	Z60	X61	Y61	Z61	X62	Y62	Z62	X63	Y63	Z63	

1120	5.595	-112.3574523925782	1539.739501953125	-1098.43798828125	-269.2386474609376	1492.412353515625	-1156.896606445313	-260.3296508789063	1481.751953125	-1012.289184570313	-330.2776489257813	1332.459838867188	-1075.577880859375	-386.9881896972657	1064.342041015625	-1027.559448242188	-189.356918334961	1290.318237304688	-1088.170043945313	-259.8843688964844	1340.01416015625	-1219.40869140625	-99.57899475097659	1295.139282226563	-1352.324584960938	-74.0275115966797	1329.6298828125	-1324.595092773438	-31.28981971740723	1306.645874023438	-1359.856689453125	30.78182411193848	1313.425415039063	-1361.0400390625	45.55876922607423	1241.174194335938	-1338.713256835938	nan	nan	nan	325.1386718750001	1346.916259765625	-1325.129638671875	382.0577087402344	1369.873291015625	-1233.2470703125	-230.6895141601563	1345.365112304688	-953.761901855469	-76.61791992187501	1337.3017578125	-835.2979125976565	-41.98399353027344	1342.351318359375	-869.2457275390627	-8.277812957763674	1335.246459960938	-819.3385009765627	65.02496337890626	1334.5703125	-809.9412841796877	73.07894134521486	1255.63623046875	-820.7545166015627	341.6859436035157	1336.71240234375	-894.3072509765627	352.0250854492188	1352.753051757813	-826.332214355469	418.7521362304689	1376.08154296875	-901.146423339844	-259.7514648437501	852.3381958007815	-1121.656860351563	-277.9391479492188	864.334411621094	-874.0540771484377	-429.9269409179689	928.7854003906252	-1010.500366210938	-445.2991943359376	899.7673950195315	-1040.279663085938	-450.1537475585939	901.2769775390627	-983.0479736328127	-169.688461303711	595.1708984375001	-1178.180297851563	-100.4737854003907	544.1829833984376	-1171.55029296875	-67.1588592529297	569.5534667968751	-1144.363159179688	-100.7677917480469	484.9808349609376	-1155.305908203125	-83.0033645629883	435.2735595703126	-1139.062744140625	-79.87711334228517	441.8752746582032	-1026.365600585938	-136.7265930175782	274.6318664550782	-1040.271850585938	-199.4137573242188	254.2804565429688	-1102.36474609375	-170.3271789550782	235.6591491699219	-1069.603881835938	-226.9360809326172	185.2251586914063	-1029.634521484375	-371.0821228027344	115.763427734375	-1044.78857421875	-329.0571289062501	132.7825317382813	-970.1623535156252	-432.6055297851564	102.5525970458985	-982.8544921875002	-232.5692291259766	46.92095947265626	-976.2420043945315	-225.3039855957032	43.77349472045899	-1026.667358398438	-271.2998352050782	33.65633010864259	-1073.115600585938	-339.8706359863282	596.8132934570314	-800.4690551757815	-305.3970336914063	539.9298706054689	-788.4038085937502	-272.4170532226563	538.9360961914064	-791.9465942382815	-336.9440307617188	459.9387207031251	-795.9114379882815	-337.9576721191407	356.1920776367188	-805.3178710937502	-332.6755065917969	346.5041198730469	-919.135437011719	-469.3560791015626	248.3425598144532	-840.8284301757815	-572.7301025390626	299.3977050781251	-818.8433227539065	-553.8311767578126	255.4757232666016	-823.957702636719	-595.6430053710939	228.0911254882813	-858.990661621094	-727.8871459960939	255.8815307617188	-847.111267089844	-706.2119140625001	223.9617004394532	-921.3000488281252	-750.2109375000001	309.8807983398438	-920.2309570312502	-786.5159912109377	96.65398406982425	-912.3983154296877	-795.541198730469	97.76741027832034	-865.2142333984377	-823.3682250976565	143.8819885253907	-831.0026855468752	nan	nan	nan	nan	nan	nan	
1121	5.600000000000001	-112.7081298828125	1540.976318359375	-1098.652954101563	-269.6520690917969	1493.426147460938	-1157.036376953125	-260.6630249023438	1482.724609375	-1012.312194824219	-330.3736267089844	1333.291625976563	-1075.720947265625	-387.108612060547	1065.248413085938	-1027.567993164063	-189.8702392578125	1291.3291015625	-1088.18115234375	-259.9460144042969	1341.10205078125	-1219.397583007813	-99.95374298095706	1296.180541992188	-1352.437866210938	-74.51441192626955	1330.673461914063	-1324.746215820313	-31.71374893188477	1307.728515625	-1359.976318359375	30.38155746459962	1314.522583007813	-1361.270629882813	45.21075820922852	1242.118774414063	-1338.949829101563	nan	nan	nan	324.7350158691407	1348.201416015625	-1325.3681640625	381.6424865722657	1371.251953125	-1233.471923828125	-230.8879089355469	1346.422729492188	-953.9102172851565	-76.87245178222658	1338.126342773438	-835.342712402344	-41.94668197631837	1343.2919921875	-869.3546142578127	-8.523539543151857	1336.302490234375	-819.355163574219	64.8704071044922	1335.427856445313	-809.877624511719	72.65987396240236	1256.369750976563	-820.834167480469	341.5397949218751	1337.830078125	-894.2044677734377	351.9050292968751	1353.711669921875	-826.2680664062502	418.6505737304689	1377.817504882813	-901.3035278320315	-259.7590942382813	853.4793090820315	-1121.619873046875	-277.5778808593751	865.1021118164065	-874.2261962890627	-429.7177734375001	929.576354980469	-1010.410339355469	-445.2588500976564	900.8599243164065	-1040.13427734375	-449.9047241210939	902.3538818359377	-982.8648071289065	-170.1395721435547	595.7202758789064	-1178.537475585938	-100.7270050048828	544.3610229492189	-1171.925537109375	-67.63482666015626	570.1647949218751	-1144.753784179688	-101.2873992919922	485.4902954101564	-1155.667114257813	-83.21783447265626	436.0919189453126	-1139.641845703125	-80.39007568359376	442.3116149902345	-1026.833740234375	-136.9766540527344	274.8688659667969	-1040.674194335938	-199.5885009765626	254.3488311767579	-1102.711669921875	-170.3167266845703	236.0134735107422	-1070.088500976563	-227.1101989746094	185.4642333984375	-1029.93310546875	-371.1065673828126	115.7641067504883	-1044.855224609375	-329.0018310546876	132.9380340576172	-970.2812500000002	-432.6076965332032	102.5310363769532	-982.914489746094	-232.5826873779297	46.96178054809571	-976.3289184570315	-225.3229064941407	43.82617568969727	-1026.684204101563	-271.3431701660157	33.48124313354493	-1072.926147460938	-339.7323608398438	597.9443359375001	-800.4000244140627	-305.2299804687501	541.0769042968751	-788.0202636718752	-271.8615112304688	540.1021118164064	-791.7133789062502	-336.7887573242188	460.882781982422	-795.6907958984377	-337.5368957519532	357.4154663085938	-804.9879150390627	-332.4888000488282	347.5568237304688	-919.0300292968752	-469.2716369628907	249.6077880859376	-840.6092529296877	-572.4545288085939	300.7399291992188	-818.7036132812502	-553.7964477539064	256.8882141113282	-823.6516113281252	-594.9875488281251	230.1524353027344	-858.3323974609377	-727.7930908203126	257.5694274902344	-846.764831542969	-706.1046142578126	225.2065582275391	-921.0249633789065	-749.7457275390626	311.4410095214844	-919.961120605469	-786.4282226562502	98.26752471923831	-911.9174804687502	-795.9375610351565	99.36074066162112	-864.900817871094	-823.4432373046877	145.6972351074219	-830.479431152344	nan	nan	nan	nan	nan	nan	
1122	5.605	-113.0440826416016	1542.012329101563	-1098.902099609375	-269.6724853515626	1494.811889648438	-1157.153930664063	-261.0362548828126	1483.755004882813	-1012.449890136719	-330.8092956542969	1334.342529296875	-1075.763916015625	-387.4213256835939	1065.93896484375	-1027.725219726563	-190.1018981933594	1292.455078125	-1088.412963867188	-260.2999877929688	1342.178833007813	-1219.51806640625	-100.3226928710938	1297.28076171875	-1352.647338867188	-74.90126037597658	1331.47509765625	-1324.775756835938	-32.16136169433594	1308.885986328125	-1360.1669921875	29.54397583007813	1316.153930664063	-1361.485961914063	44.91259384155274	1243.297119140625	-1338.869018554688	nan	nan	nan	324.3962707519532	1349.531127929688	-1325.592407226563	381.2569580078126	1372.838500976563	-1233.736328125	-231.0571746826172	1347.453979492188	-954.0828247070315	-77.16757202148439	1339.295043945313	-835.4534912109377	-42.30777740478516	1344.389038085938	-869.3994140625002	-8.949053764343263	1337.250122070313	-819.4666748046877	64.73011779785158	1336.725952148438	-810.031677246094	72.59604644775392	1257.88134765625	-820.7921142578127	341.2382202148438	1338.9189453125	-894.0383300781252	351.5691528320313	1355.063842773438	-826.0032958984377	418.3878173828126	1378.541870117188	-900.6455078125002	-259.8796691894532	854.2947998046877	-1121.881469726563	-277.0211486816407	866.102722167969	-874.2575683593752	-429.5470275878907	930.4026489257815	-1010.328186035156	-444.9983215332032	901.6907958984377	-1039.922241210938	-449.7612609863282	903.3259277343752	-982.698669433594	-170.7651062011719	596.0487060546876	-1178.91064453125	-101.7803039550782	545.0604858398439	-1172.367919921875	-68.0077590942383	570.6236572265626	-1145.05859375	-101.9406127929688	485.9299926757814	-1156.064208984375	-83.91912841796876	436.5697631835939	-1140.085693359375	-80.85800170898439	442.6570434570314	-1027.408325195313	-137.2157440185547	275.3753967285157	-1041.215454101563	-200.0533447265626	254.6527404785157	-1103.095703125	-170.7350463867188	236.543441772461	-1070.361450195313	-227.2153778076172	185.6594390869141	-1030.304443359375	-371.3061523437501	115.7697296142578	-1045.039306640625	-329.0247497558594	133.0126953125	-970.4080810546877	-432.6040649414064	102.6221389770508	-982.9283447265627	-232.6078338623047	47.07168579101563	-976.3931884765627	-225.3733825683594	43.85210037231446	-1026.820190429688	-271.3549804687501	33.45499801635743	-1072.972900390625	-339.4531555175782	598.8897094726564	-800.2805175781252	-305.0621643066407	542.3137817382814	-788.164245605469	-271.6885986328126	541.0410156250001	-792.0080566406252	-336.5238952636719	462.0222778320314	-795.574401855469	-337.4838562011719	358.2857971191407	-804.7766723632815	-332.0969238281251	348.2763671875001	-918.803649902344	-469.176483154297	250.9415435791016	-840.200134277344	-572.5526123046876	302.0056457519532	-818.4815673828127	-553.5946044921876	258.1613464355469	-823.4742431640627	-595.0338134765626	231.4690551757813	-858.036804199219	-727.5189819335939	259.2237548828126	-846.4769287109377	-706.0484619140626	226.4407196044922	-920.5850830078127	-749.5974121093751	313.1772155761719	-919.542663574219	-787.5057373046877	98.76631164550784	-911.4536132812502	-796.2944946289065	101.5948333740235	-864.208923339844	-823.513366699219	147.7224731445313	-830.1531372070315	nan	nan	nan	nan	nan	nan	
1123	5.61	-113.3058700561524	1542.9931640625	-1098.992065429688	-270.0764465332032	1495.879638671875	-1157.279907226563	-261.3858032226563	1485.044677734375	-1012.708068847656	-331.0412902832032	1335.34326171875	-1075.799682617188	-387.0805053710939	1067.114135742188	-1027.544189453125	-190.1243896484375	1293.556762695313	-1088.616577148438	-260.9106445312501	1343.163940429688	-1219.7734375	-100.6853103637696	1298.271850585938	-1352.8271484375	-75.05433654785158	1332.823364257813	-1325.256225585938	-32.4926986694336	1309.895385742188	-1360.434814453125	29.08113288879395	1317.2958984375	-1361.705078125	44.54986953735352	1244.61767578125	-1339.175415039063	nan	nan	nan	323.9163818359376	1350.775634765625	-1325.86865234375	380.8274536132813	1374.256958007813	-1233.961181640625	-231.5041961669922	1348.394775390625	-954.0606689453127	-77.37316131591798	1340.317138671875	-835.6140136718752	-42.31559371948243	1345.359497070313	-869.5200195312502	-9.181672096252443	1338.489868164063	-819.4592895507815	64.36285400390626	1337.674926757813	-810.0025024414065	72.30393218994142	1258.762451171875	-820.883483886719	341.2090454101563	1340.060791015625	-893.9923095703127	351.2047729492188	1356.0439453125	-825.7037353515627	418.1563110351564	1380.016479492188	-900.6790161132815	-259.8963012695313	855.2686767578127	-1122.083129882813	-276.7827453613282	867.1158447265627	-874.5786743164065	-429.5438232421876	931.2029418945315	-1010.232788085938	-444.8247985839845	902.5151977539065	-1039.7490234375	-449.7841186523439	904.1795654296877	-982.6809692382815	-171.2253112792969	596.7929077148439	-1179.267822265625	-102.3147277832032	545.4215087890626	-1172.76611328125	-68.48101806640626	571.0310058593751	-1145.59228515625	-102.5168914794922	486.4093017578126	-1156.437255859375	-84.64061737060548	436.7888183593751	-1140.62841796875	-81.2337112426758	443.1863403320314	-1027.975219726563	-137.5321502685547	275.7188110351563	-1041.636108398438	-200.496810913086	255.0518035888672	-1103.567993164063	-171.0508575439453	236.6494293212891	-1070.49365234375	-227.3898620605469	185.8572082519532	-1030.682861328125	-371.3282775878907	115.745101928711	-1045.139892578125	-328.9458618164063	133.2324829101563	-970.452331542969	-432.5911560058595	102.6254501342774	-982.9990234375002	-232.5239410400391	47.04932403564454	-976.4429321289065	-225.3824615478516	43.82296371459962	-1026.90234375	-271.4350891113282	33.41741561889649	-1072.997802734375	-338.9916992187501	599.9516601562501	-800.254333496094	-304.5980224609376	543.1443481445314	-788.0151977539065	-271.6773071289063	542.1867065429689	-791.5013427734377	-336.2707824707032	462.9776611328126	-795.3076782226565	-337.1773681640626	359.3918762207032	-804.5826416015627	-331.8203125000001	349.1247558593751	-918.5161132812502	-468.9076538085939	252.0287322998047	-839.910583496094	-571.9753417968751	303.5203857421876	-818.2239379882815	-553.3591308593751	259.4662780761719	-823.420593261719	-595.1058349609376	233.2284545898438	-857.109069824219	-727.3242187500001	260.8651123046876	-846.1630859375002	-706.0858764648439	228.3358917236329	-920.3638305664065	-749.1565551757814	314.8684387207032	-919.2534790039065	-787.5281372070315	101.7642288208008	-911.0429687500002	-796.514343261719	103.0814819335938	-864.2490844726565	-823.8854980468752	149.8466339111328	-829.768981933594	nan	nan	nan	nan	nan	nan	
